<svg id="visual" viewBox="0 0 960 540" width="960" height="540" xmlns="http://www.w3.org/2000/svg" xmlns:xlink="http://www.w3.org/1999/xlink" version="1.1"><rect x="0" y="0" width="960" height="540" fill="#c8fffa"></rect><path d="M0 368L137 335L274 392L411 393L549 321L686 340L823 393L960 353L960 541L823 541L686 541L549 541L411 541L274 541L137 541L0 541Z" fill="#f5730a"></path><path d="M0 424L137 421L274 391L411 394L549 421L686 356L823 404L960 371L960 541L823 541L686 541L549 541L411 541L274 541L137 541L0 541Z" fill="#dc3a55"></path><path d="M0 427L137 401L274 444L411 431L549 396L686 399L823 434L960 451L960 541L823 541L686 541L549 541L411 541L274 541L137 541L0 541Z" fill="#983173"></path><path d="M0 436L137 457L274 457L411 455L549 458L686 472L823 472L960 443L960 541L823 541L686 541L549 541L411 541L274 541L137 541L0 541Z" fill="#443269"></path><path d="M0 478L137 473L274 506L411 477L549 491L686 515L823 476L960 478L960 541L823 541L686 541L549 541L411 541L274 541L137 541L0 541Z" fill="#00233e"></path></svg>