<svg id="visual" viewBox="0 0 1920 1080" width="1920" height="1080" xmlns="http://www.w3.org/2000/svg" version="1.1"><rect width="1920" height="1080" fill="#001220"></rect><g><g transform="translate(1303 684)"><path d="M174.9 -53.5C203.1 29.9 186.1 131.4 121.4 182C56.6 232.5 -55.9 232.2 -120.4 181.6C-184.9 131 -201.3 30.1 -173.3 -53.1C-145.2 -136.4 -72.6 -202 0.4 -202.2C73.3 -202.3 146.7 -136.9 174.9 -53.5Z" stroke="#FBAE3C" fill="none" stroke-width="20"></path></g><g transform="translate(268 231)"><path d="M162.4 -54.1C186.2 20.3 164.3 108.1 105 153.2C45.8 198.3 -50.8 200.7 -111.1 156.1C-171.3 111.6 -195.2 20.2 -170.6 -55.3C-146 -130.9 -73 -190.6 -1.8 -190C69.3 -189.4 138.7 -128.5 162.4 -54.1Z" stroke="#FBAE3C" fill="none" stroke-width="20"></path></g><g transform="translate(65 771)"><path d="M125.9 -44C143.6 13.7 125 80.1 81.7 111.3C38.3 142.5 -29.7 138.5 -74.3 105.4C-118.8 72.3 -139.8 10 -123.5 -45.7C-107.3 -101.3 -53.6 -150.4 0.2 -150.5C54.1 -150.6 108.1 -101.6 125.9 -44Z" stroke="#FBAE3C" fill="none" stroke-width="20"></path></g><g transform="translate(1079 29)"><path d="M126.2 -41.6C146.8 22.4 135.1 96.2 90.5 129.8C45.9 163.5 -31.7 156.9 -86.1 117.6C-140.5 78.2 -171.8 6.1 -153.6 -54.6C-135.4 -115.2 -67.7 -164.5 -7.4 -162.1C52.8 -159.7 105.6 -105.6 126.2 -41.6Z" stroke="#FBAE3C" fill="none" stroke-width="20"></path></g><g transform="translate(1914 235)"><path d="M159.5 -44.9C180.4 12.5 153 92.6 101.4 127.2C49.8 161.7 -25.9 150.7 -79.2 111.4C-132.5 72.1 -163.5 4.5 -146.5 -47.4C-129.6 -99.4 -64.8 -135.5 2.3 -136.3C69.3 -137 138.6 -102.3 159.5 -44.9Z" stroke="#FBAE3C" fill="none" stroke-width="20"></path></g></g></svg>