<svg id="visual" viewBox="0 0 960 540" width="960" height="540" xmlns="http://www.w3.org/2000/svg" xmlns:xlink="http://www.w3.org/1999/xlink" version="1.1"><path d="M0 201L87 168L175 136L262 152L349 114L436 93L524 141L611 104L698 131L785 125L873 136L960 125L960 0L873 0L785 0L698 0L611 0L524 0L436 0L349 0L262 0L175 0L87 0L0 0Z" fill="#00cc8e"></path><path d="M0 309L87 249L175 298L262 309L349 276L436 266L524 303L611 314L698 266L785 303L873 298L960 244L960 123L873 134L785 123L698 129L611 102L524 139L436 91L349 112L262 150L175 134L87 166L0 199Z" fill="#00b98a"></path><path d="M0 411L87 336L175 411L262 379L349 384L436 336L524 357L611 368L698 352L785 401L873 341L960 352L960 242L873 296L785 301L698 264L611 312L524 301L436 264L349 274L262 307L175 296L87 247L0 307Z" fill="#00a784"></path><path d="M0 487L87 471L175 492L262 455L349 509L436 471L524 465L611 471L698 482L785 455L873 460L960 487L960 350L873 339L785 399L698 350L611 366L524 355L436 334L349 382L262 377L175 409L87 334L0 409Z" fill="#00957c"></path><path d="M0 541L87 541L175 541L262 541L349 541L436 541L524 541L611 541L698 541L785 541L873 541L960 541L960 485L873 458L785 453L698 480L611 469L524 463L436 469L349 507L262 453L175 490L87 469L0 485Z" fill="#038373"></path></svg>